<?xml version="1.0" encoding="UTF-8"?>
<svg id="Layer_1" data-name="Layer 1" xmlns="http://www.w3.org/2000/svg" viewBox="0 0 374.55 174.2">
  <defs>
    <style>
      .cls-1 {
        stroke: #010101;
        stroke-miterlimit: 10;
      }

      .cls-1, .cls-2 {
        fill: none;
        stroke-linecap: round;
        stroke-width: .5px;
      }

      .cls-2 {
        stroke: #000;
        stroke-linejoin: round;
      }
    </style>
  </defs>
  <path class="cls-2" d="m368.59,41.91l-61.85,117.16c-3.74,6.94-9.96,8.46-15.64,6.24l-55.48-23.7c-5.81-2.5-5.39-9.28-2.49-14.01,2.9-4.71,65.03-115.4,65.03-115.4,3.32-6.2,7.13-9.13,13.37-6.75l1.8.69c1.19.46,2.19,1.3,2.85,2.38.63,1.01,1.67,2.23,3.23,2.8,2.9,1.06,29.87,11.59,32.35,12.64,1.42.59,3.47.31,4.98-.03,1.38-.32,2.82-.2,4.11.36l5.6,2.42c6.82,3.15,5.48,8.97,2.12,15.21Z"/>
  <path class="cls-1" d="m321.08,135.31s-1.13,11.54-2.74,16.61c-1.73,5.48-4.17,3.29-1.68-1.9l55.62-106.09c3.61-7.12,2.4-16.55-3.79-19.23-2.47-1.07-9.18-4.07-11.74-4.9-2.56-.83-3.39.62-6.44.07-3.05-.55-27-9.68-28.64-10.94-3.02-2.33-1.55-4.81,4.23-3.07,6.2,1.89,23.44,8.26,26.69,10.7,1.17.88.18,1.85-4.07.19,0,0-31.76-11.77-36.06-13.49-5.55-2.22-12.2-1.01-15.99,5.64,0,0-58.71,104.85-65.37,116.38-6.65,11.53.14,21.65,3.33,22.9l30.79,13.19c2.46,1.02,4.33,1.26,4.4.19.06-1.07-1.09-2.02-4.65-3.54-4.97-2.11-6.22-1.47-6.17-.58.09,1.62,2.3,2.18,12.99,6.66l21.86,8.99c5.13,2.15,12.83.5,14.63-7.26,15.04-62.74-5.09-86.82-26.85-74.28-11.01,6.35,5.49,13.33,16.47-7.78,11.06-21.25-32.82-32.65-70.48-13.91-9.27,4.61-19.81,12.98-16.73,13.71,3.08.73,11.6-8.65,7.18-11.72-6.26-4.35-19.52,13.94-12.82,15.95,7.03,2.11,16.4-6.09,16.4-17.27s-.72-51.69-.36-52.96c.37-1.26,2.7,1.98-.1,4.63-1.97,1.87-52.67-11.16-52.13-16.24.55-5.08,57.31,12.87,57.31,9.61S179.03,2.3,174.86,1.2c-4.17-1.08,4.18-1.81,4.18,1.08s-.18,43.34,0,48.6c.18,5.26-7.44,13.97-9.61,12.81-2.18-1.15,6.35-11,10.7-7.92,4.35,3.08-4.16,13.05-10.7,14.33-3.82.75-6.02-1.98-5.19-6.65,1.05-5.87,9.51-16.05,10.44-12.23.51,2.05-5.62,5.1-20.59,2.51-16.52-2.84-22.67,10.55-19.9,11.77,2.54,1.13,16.84-13.7-6.51-30.7-11.73-8.54-13.28-15.65-12.42-17.37.86-1.72,3.43-2.4,3.43,6.52v59.72c0,7.86-8.34,15.24-14.73,13.37-7.72-2.25,4.72-17.55,10.01-14.4,3.24,1.93-1.12,8.59-7.33,12.31-11.59,6.94-53.92,11.32-106.39-12.35"/>
</svg>