<?xml version="1.0" encoding="UTF-8"?>
<svg id="Layer_1" data-name="Layer 1" xmlns="http://www.w3.org/2000/svg" viewBox="0 0 422.77 119.92">
  <defs>
    <style>
      .cls-1 {
        fill: none;
        stroke: #000;
        stroke-linecap: round;
        stroke-linejoin: round;
        stroke-width: .5px;
      }
    </style>
  </defs>
  <path class="cls-1" d="m422.52,25.56c-68.16-29.29-93.54,16.38-115.77,0-11.36-8.37,2.36-29.25,5.08-24.66,5.76,9.74-126.4,10.09-146.88,4.05-2.24-.66-1.91-6.23,10.13.69,6.18,3.55,12.75,11.69,18.87,22.85,8.89,16.19-1.31,35.65-4.78,34.33-8.13-3.07,9.1-16.05,25.32-22.99,12.11-3.56,78.99-28.02,78.99-28.02-17.56,24.73-50.06,74.01-50.06,74.01,0,0-26.22-21.68-28.2-34.08-1.14-7.09,5.77-5.6,3.96.58-2.24,7.66-11.13,41.28-74.43,30.58-8.65-1.46-16.72,7.23-14,7.99,2.72.76,10.28-8.64,4.57-10.34-6.25-1.86-21.31,17.51-7.33,15.66,11.35-1.51,12.54-13.15,12.54-17.97v-41.14s-.29-14.45,1.06-14c1.36.45,1.88,5.01-1.58,6.15-6.86,2.26-20.46,6.84-30.4,11.14-3.4,1.47-4.3,5.28,10.12.86,15.6-4.78,21.59-14.03,18.7-14.31-7.08-.68-27.06,7.7-34.67,13.35-3.29,2.44-2.23,8.19.78,7.39,4.09-1.09-.15-7.34,0-2.21v45.32c0,11.76-13.35,14.82-15.51,11.46-3.2-4.99,10.44-22.09,17.01-15.89,2.62,2.46-2.62,9.28-10.09,11.67-12.41,3.99-30.72,3.85-37.2,5.82-10.39,3.16-15.66,13.85-12.35,15.51,3.31,1.66,6.18-3.31,6.18-9.19s-2.56-56.63-2.86-72.44c-.3-15.81.6-25.08-1.36-25-1.15.04-2.11,4.67,1.66,9.64,3.77,4.97,12.35,15.06,11.47,23.5-.88,8.44-10.57,13.74-19.75,23.62-13.96,15.01.3,25.27,9.77,23.22,14.83-3.21,21.13-21.74,9.49-24.1-10.91-2.21-21.39,15.96-15.24,16.87.94.14,3.16-1.08,3.27-5.35.27-11.74-34.68-25.61-48.79-4.45"/>
</svg>