<svg width="50" height="54" viewBox="0 0 50 54" fill="none" xmlns="http://www.w3.org/2000/svg">
<rect x="0.858398" y="0.5" width="49" height="53" rx="24.5" fill="#E6E3E4" fill-opacity="0.5"/>
<g clip-path="url(#clip0_224_719)">
<path d="M31.4678 15.5H19.249C16.2719 15.5 13.8584 17.9135 13.8584 20.8906V33.1094C13.8584 36.0865 16.2719 38.5 19.249 38.5H31.4678C34.4449 38.5 36.8584 36.0865 36.8584 33.1094V20.8906C36.8584 17.9135 34.4449 15.5 31.4678 15.5Z" fill="url(#paint0_radial_224_719)"/>
<path d="M31.4678 15.5H19.249C16.2719 15.5 13.8584 17.9135 13.8584 20.8906V33.1094C13.8584 36.0865 16.2719 38.5 19.249 38.5H31.4678C34.4449 38.5 36.8584 36.0865 36.8584 33.1094V20.8906C36.8584 17.9135 34.4449 15.5 31.4678 15.5Z" fill="url(#paint1_radial_224_719)"/>
<path d="M25.3592 18.0156C22.9192 18.0156 22.613 18.0263 21.6547 18.0699C20.6982 18.1137 20.0453 18.2651 19.4741 18.4873C18.8831 18.7168 18.3819 19.0238 17.8825 19.5233C17.3827 20.0227 17.0757 20.524 16.8455 21.1147C16.6227 21.6861 16.4711 22.3393 16.4281 23.2953C16.3853 24.2537 16.374 24.56 16.374 27.0001C16.374 29.4402 16.3848 29.7454 16.4283 30.7037C16.4723 31.6602 16.6237 32.3131 16.8457 32.8843C17.0753 33.4753 17.3823 33.9765 17.8819 34.4759C18.3811 34.9757 18.8824 35.2834 19.4729 35.5129C20.0446 35.7351 20.6976 35.8864 21.6539 35.9303C22.6122 35.9739 22.9182 35.9846 25.3581 35.9846C27.7984 35.9846 28.1037 35.9739 29.0619 35.9303C30.0184 35.8864 30.672 35.7351 31.2437 35.5129C31.8344 35.2834 32.3349 34.9757 32.8341 34.4759C33.3339 33.9765 33.6408 33.4753 33.8711 32.8846C34.0919 32.3131 34.2436 31.66 34.2885 30.7039C34.3315 29.7456 34.3428 29.4402 34.3428 27.0001C34.3428 24.56 34.3315 24.2538 34.2885 23.2955C34.2436 22.339 34.0919 21.6862 33.8711 21.115C33.6408 20.524 33.3339 20.0227 32.8341 19.5233C32.3344 19.0236 31.8346 18.7166 31.2432 18.4874C30.6704 18.2651 30.0172 18.1136 29.0607 18.0699C28.1023 18.0263 27.7972 18.0156 25.3564 18.0156H25.3592ZM24.5532 19.6347C24.7925 19.6343 25.0594 19.6347 25.3592 19.6347C27.7581 19.6347 28.0424 19.6433 28.9897 19.6864C29.8657 19.7264 30.3411 19.8728 30.6578 19.9958C31.0771 20.1586 31.376 20.3533 31.6903 20.6678C32.0048 20.9823 32.1994 21.2817 32.3626 21.701C32.4856 22.0173 32.6321 22.4927 32.672 23.3687C32.7151 24.3158 32.7244 24.6003 32.7244 26.998C32.7244 29.3958 32.7151 29.6803 32.672 30.6274C32.632 31.5033 32.4856 31.9788 32.3626 32.2951C32.1998 32.7144 32.0048 33.013 31.6903 33.3272C31.3759 33.6417 31.0773 33.8363 30.6578 33.9992C30.3415 34.1227 29.8657 34.2687 28.9897 34.3088C28.0426 34.3518 27.7581 34.3612 25.3592 34.3612C22.9602 34.3612 22.6758 34.3518 21.7288 34.3088C20.8528 34.2684 20.3774 34.122 20.0604 33.999C19.6412 33.8361 19.3417 33.6415 19.0272 33.3271C18.7127 33.0126 18.5181 32.7139 18.3549 32.2944C18.2319 31.9781 18.0854 31.5026 18.0455 30.6266C18.0024 29.6795 17.9938 29.3951 17.9938 26.9958C17.9938 24.5966 18.0024 24.3136 18.0455 23.3664C18.0855 22.4905 18.2319 22.015 18.3549 21.6983C18.5178 21.279 18.7127 20.9796 19.0273 20.6651C19.3417 20.3507 19.6412 20.156 20.0605 19.9928C20.3772 19.8693 20.8528 19.7233 21.7288 19.683C22.5576 19.6456 22.8788 19.6343 24.5532 19.6325V19.6347ZM30.1551 21.1265C29.5599 21.1265 29.0769 21.6089 29.0769 22.2042C29.0769 22.7994 29.5599 23.2824 30.1551 23.2824C30.7503 23.2824 31.2332 22.7994 31.2332 22.2042C31.2332 21.609 30.7503 21.1261 30.1551 21.1261V21.1265ZM25.3592 22.3862C22.8112 22.3862 20.7454 24.452 20.7454 27.0001C20.7454 29.5481 22.8112 31.613 25.3592 31.613C27.9073 31.613 29.9724 29.5481 29.9724 27.0001C29.9724 24.4521 27.9071 22.3862 25.359 22.3862H25.3592ZM25.3592 24.0052C27.0131 24.0052 28.3541 25.346 28.3541 27.0001C28.3541 28.654 27.0131 29.9949 25.3592 29.9949C23.7052 29.9949 22.3644 28.654 22.3644 27.0001C22.3644 25.346 23.7052 24.0052 25.3592 24.0052Z" fill="white"/>
</g>
<defs>
<radialGradient id="paint0_radial_224_719" cx="0" cy="0" r="1" gradientUnits="userSpaceOnUse" gradientTransform="translate(19.9678 40.2714) rotate(-90) scale(22.7947 21.2009)">
<stop stop-color="#FFDD55"/>
<stop offset="0.1" stop-color="#FFDD55"/>
<stop offset="0.5" stop-color="#FF543E"/>
<stop offset="1" stop-color="#C837AB"/>
</radialGradient>
<radialGradient id="paint1_radial_224_719" cx="0" cy="0" r="1" gradientUnits="userSpaceOnUse" gradientTransform="translate(10.0058 17.1568) rotate(78.681) scale(10.1894 42.0009)">
<stop stop-color="#3771C8"/>
<stop offset="0.128" stop-color="#3771C8"/>
<stop offset="1" stop-color="#6600FF" stop-opacity="0"/>
</radialGradient>
<clipPath id="clip0_224_719">
<rect width="23" height="23" fill="white" transform="translate(13.8584 15.5)"/>
</clipPath>
</defs>
</svg>
