<svg width="50" height="54" viewBox="0 0 50 54" fill="none" xmlns="http://www.w3.org/2000/svg">
<rect x="0.858398" y="0.5" width="49" height="53" rx="24.5" fill="#E6E3E4" fill-opacity="0.5"/>
<g clip-path="url(#clip0_224_707)">
<path d="M25.3584 12.5C21.5136 12.5 17.8229 14.0286 15.1064 16.7469C12.3872 19.4663 10.8592 23.1543 10.8584 27C10.8584 30.8441 12.3877 34.5348 15.1064 37.2531C17.8229 39.9714 21.5136 41.5 25.3584 41.5C29.2032 41.5 32.8939 39.9714 35.6104 37.2531C38.3291 34.5348 39.8584 30.8441 39.8584 27C39.8584 23.1559 38.3291 19.4652 35.6104 16.7469C32.8939 14.0286 29.2032 12.5 25.3584 12.5Z" fill="url(#paint0_linear_224_707)"/>
<path d="M17.4217 26.847C21.6493 25.0055 24.4678 23.7914 25.877 23.2048C29.9053 21.5299 30.7413 21.2389 31.2873 21.2291C31.4074 21.2272 31.6747 21.2568 31.8492 21.3979C31.9942 21.5168 32.035 21.6777 32.0553 21.7906C32.0735 21.9035 32.0984 22.1606 32.078 22.3613C31.8605 24.6541 30.9157 30.2181 30.4354 32.7862C30.2338 33.8728 29.8328 34.2371 29.4453 34.2726C28.6025 34.3501 27.9636 33.7162 27.148 33.1817C25.8725 32.345 25.152 31.8244 23.9127 31.0081C22.4808 30.0647 23.4097 29.5461 24.2253 28.6987C24.4383 28.4769 28.1494 25.1023 28.2196 24.7962C28.2287 24.7579 28.2378 24.6152 28.1517 24.54C28.0678 24.4645 27.9432 24.4903 27.8526 24.5107C27.7235 24.5397 25.6867 25.8873 21.7354 28.5533C21.1577 28.9507 20.6343 29.1444 20.1631 29.1342C19.6465 29.1231 18.6496 28.8415 17.9088 28.6009C17.0025 28.3057 16.2798 28.1496 16.3432 27.6482C16.375 27.3872 16.7352 27.1201 17.4217 26.847Z" fill="white"/>
</g>
<defs>
<linearGradient id="paint0_linear_224_707" x1="1460.86" y1="12.5" x2="1460.86" y2="2912.5" gradientUnits="userSpaceOnUse">
<stop stop-color="#2AABEE"/>
<stop offset="1" stop-color="#229ED9"/>
</linearGradient>
<clipPath id="clip0_224_707">
<rect width="29" height="29" fill="white" transform="translate(10.8584 12.5)"/>
</clipPath>
</defs>
</svg>
