<svg width="50" height="54" viewBox="0 0 50 54" fill="none" xmlns="http://www.w3.org/2000/svg">
<rect x="0.858398" y="0.5" width="49" height="53" rx="24.5" fill="#E6E3E4" fill-opacity="0.5"/>
<g clip-path="url(#clip0_224_711)">
<path d="M22.7428 14.5031L23.5021 14.5H27.2146L27.9751 14.5031L28.9271 14.5135L29.3782 14.5208L29.8136 14.5323L30.2334 14.5469L30.6376 14.5635L31.0271 14.5854L31.4021 14.6115L31.7615 14.6427L32.1084 14.6771C33.9209 14.8813 35.1636 15.3188 36.1011 16.2563C37.0386 17.1939 37.4761 18.4356 37.6803 20.2492L37.7157 20.5961L37.7459 20.9565L37.7719 21.3315L37.7928 21.7201L37.8188 22.3326L37.8313 22.7597L37.8449 23.4306L37.8542 24.3837L37.8584 25.4046L37.8574 28.8558L37.8542 29.6163L37.8438 30.5684L37.8365 31.0194L37.8251 31.4549L37.8105 31.8747L37.7938 32.2789L37.7719 32.6685L37.7459 33.0435L37.7146 33.4029L37.6803 33.7498C37.4761 35.5623 37.0386 36.8051 36.1011 37.7426C35.1636 38.6802 33.9219 39.1177 32.1084 39.3219L31.7615 39.3573L31.4011 39.3875L31.0261 39.4135L30.6376 39.4344L30.0251 39.4604L29.598 39.4729L28.9271 39.4865L27.974 39.4958L26.9532 39.5L23.5021 39.499L22.7417 39.4958L21.7896 39.4854L21.3386 39.4781L20.9032 39.4667L20.4834 39.4521L20.0792 39.4354L19.6896 39.4135L19.3146 39.3875L18.9553 39.3562L18.6084 39.3219C16.7959 39.1177 15.5532 38.6802 14.6157 37.7426C13.6782 36.8051 13.2407 35.5634 13.0365 33.7498L13.0011 33.4029L12.9709 33.0424L12.9449 32.6674L12.924 32.2789L12.898 31.6663L12.8855 31.2392L12.8719 30.5684L12.8626 29.6152L12.8584 28.5943L12.8594 25.1432L12.8626 24.3827L12.873 23.4306L12.8803 22.9795L12.8917 22.5441L12.9063 22.1243L12.923 21.7201L12.9449 21.3305L12.9709 20.9555L13.0021 20.5961L13.0365 20.2492C13.2407 18.4366 13.6782 17.1939 14.6157 16.2563C15.5532 15.3188 16.7949 14.8813 18.6084 14.6771L18.9553 14.6417L19.3157 14.6115L19.6907 14.5854L20.0792 14.5646L20.6917 14.5385L21.1188 14.526L21.7896 14.5125L22.7428 14.5031ZM19.9313 22.1034H17.0771C17.2126 28.6037 20.4626 32.5101 26.1605 32.5101H26.4834V28.7912C28.5771 28.9996 30.1605 30.5309 30.7959 32.5101H33.7542C32.9417 29.5517 30.8063 27.9162 29.473 27.2912C30.8063 26.5203 32.6813 24.6452 33.1292 22.1034H30.4417C29.8584 24.166 28.1292 26.0411 26.4834 26.2182V22.1034H23.7959V29.3121C22.1292 28.8954 20.0251 26.8745 19.9313 22.1034Z" fill="black"/>
</g>
<defs>
<clipPath id="clip0_224_711">
<rect width="25" height="25" fill="white" transform="translate(12.8584 14.5)"/>
</clipPath>
</defs>
</svg>
