<svg width="50" height="54" viewBox="0 0 50 54" fill="none" xmlns="http://www.w3.org/2000/svg">
<rect x="0.858398" y="0.5" width="49" height="53" rx="24.5" fill="#E6E3E4" fill-opacity="0.5"/>
<g clip-path="url(#clip0_224_714)">
<path d="M11.9559 26.8327C11.9553 29.1852 12.5748 31.4823 13.7527 33.507L11.8433 40.4247L18.978 38.5685C20.9514 39.6344 23.1624 40.193 25.4093 40.1931H25.4152C32.8324 40.1931 38.8703 34.2043 38.8734 26.8432C38.8749 23.2762 37.4762 19.9221 34.935 17.3986C32.3942 14.8754 29.015 13.485 25.4146 13.4834C17.9965 13.4834 11.9591 19.4719 11.956 26.8327" fill="url(#paint0_linear_224_714)"/>
<path d="M11.4754 26.8281C11.4747 29.2653 12.1164 31.6445 13.3363 33.7417L11.3584 40.9074L18.749 38.9846C20.7853 40.0863 23.078 40.6671 25.411 40.668H25.417C33.1004 40.668 39.3551 34.4637 39.3584 26.8392C39.3597 23.144 37.9107 19.6693 35.2787 17.0554C32.6464 14.4419 29.1464 13.0015 25.417 13C17.7323 13 11.4785 19.2034 11.4754 26.8281ZM15.8768 33.3805L15.6008 32.9459C14.4408 31.1157 13.8285 29.0007 13.8294 26.829C13.8318 20.4915 19.0297 15.3355 25.4214 15.3355C28.5167 15.3368 31.4256 16.5341 33.6136 18.7064C35.8014 20.8789 37.0053 23.7668 37.0045 26.8383C37.0017 33.1757 31.8036 38.3324 25.417 38.3324H25.4124C23.3329 38.3313 21.2934 37.7772 19.5147 36.73L19.0914 36.4809L14.7057 37.6219L15.8768 33.3805Z" fill="url(#paint1_linear_224_714)"/>
<path d="M21.9325 21.0472C21.6716 20.4716 21.3969 20.46 21.1488 20.4499C20.9455 20.4413 20.7132 20.4419 20.4811 20.4419C20.2488 20.4419 19.8714 20.5286 19.5523 20.8743C19.2329 21.2203 18.333 22.0564 18.333 23.7569C18.333 25.4575 19.5813 27.1009 19.7553 27.3318C19.9296 27.5622 22.1652 31.1635 25.7059 32.549C28.6485 33.7003 29.2473 33.4713 29.886 33.4136C30.5247 33.3561 31.947 32.5777 32.2372 31.7706C32.5276 30.9636 32.5276 30.2719 32.4405 30.1273C32.3535 29.9833 32.1211 29.8968 31.7728 29.724C31.4243 29.5511 29.7117 28.7149 29.3925 28.5996C29.0731 28.4843 28.8409 28.4268 28.6086 28.7729C28.3763 29.1184 27.7092 29.8968 27.5059 30.1273C27.3027 30.3584 27.0994 30.3871 26.7512 30.2142C26.4026 30.0408 25.2807 29.6763 23.9497 28.4988C22.9142 27.5827 22.2151 26.4513 22.0118 26.1052C21.8086 25.7596 21.9901 25.5723 22.1647 25.4001C22.3213 25.2452 22.5132 24.9965 22.6876 24.7947C22.8612 24.5929 22.9192 24.4488 23.0354 24.2183C23.1516 23.9876 23.0934 23.7857 23.0065 23.6129C22.9192 23.44 22.2423 21.7306 21.9325 21.0472Z" fill="white"/>
</g>
<defs>
<linearGradient id="paint0_linear_224_714" x1="1363.35" y1="2707.62" x2="1363.35" y2="13.4834" gradientUnits="userSpaceOnUse">
<stop stop-color="#1FAF38"/>
<stop offset="1" stop-color="#60D669"/>
</linearGradient>
<linearGradient id="paint1_linear_224_714" x1="1411.36" y1="2803.74" x2="1411.36" y2="13" gradientUnits="userSpaceOnUse">
<stop stop-color="#F9F9F9"/>
<stop offset="1" stop-color="white"/>
</linearGradient>
<clipPath id="clip0_224_714">
<rect width="28" height="28" fill="white" transform="translate(11.3584 13)"/>
</clipPath>
</defs>
</svg>
